<svg width="25" height="20" viewBox="0 0 25 20" fill="none" xmlns="http://www.w3.org/2000/svg">
<path d="M6.32813 9.28742C5.4752 9.2903 4.63738 9.51266 3.89528 9.9331C4.94008 7.22873 6.67295 4.84405 8.92239 3.01505C9.0511 2.90906 9.15766 2.77876 9.23601 2.63159C9.31435 2.48441 9.36294 2.32325 9.379 2.15729C9.39506 1.99134 9.37828 1.82385 9.32961 1.66438C9.28094 1.50492 9.20134 1.3566 9.09535 1.22789C8.98936 1.09919 8.85905 0.992624 8.71188 0.914279C8.5647 0.835934 8.40354 0.787345 8.23758 0.771285C8.07163 0.755225 7.90414 0.772009 7.74467 0.820679C7.5852 0.869349 7.43689 0.948952 7.30818 1.05494C2.69615 4.80222 0.643799 9.99075 0.643799 13.2076C0.651745 14.3451 0.990704 15.4556 1.61929 16.4036C2.24787 17.3516 3.13889 18.096 4.18353 18.5461C4.85961 18.8736 5.59999 19.0469 6.35119 19.0534C7.01239 19.0855 7.67323 18.983 8.29365 18.7522C8.91406 18.5213 9.48112 18.1668 9.96045 17.7102C10.4398 17.2536 10.8214 16.7044 11.0821 16.0959C11.3428 15.4875 11.4773 14.8324 11.4773 14.1704C11.4773 13.5084 11.3428 12.8533 11.0821 12.2449C10.8214 11.6364 10.4398 11.0872 9.96045 10.6306C9.48112 10.174 8.91406 9.81954 8.29365 9.58865C7.67323 9.35776 7.01239 9.25528 6.35119 9.28742H6.32813Z" fill="url(#paint0_linear_2_1058)"/>
<path d="M19.1729 9.28756C18.3198 9.28941 17.4817 9.51184 16.74 9.93325C17.7844 7.23171 19.5127 4.84783 21.7556 3.0152C21.896 2.91401 22.0142 2.78516 22.1029 2.63659C22.1916 2.48801 22.249 2.32285 22.2715 2.15126C22.294 1.97968 22.2812 1.80531 22.2337 1.63887C22.1863 1.47244 22.1054 1.31747 21.9958 1.1835C21.8863 1.04953 21.7505 0.939392 21.5968 0.859867C21.4431 0.780343 21.2748 0.733114 21.1021 0.721085C20.9295 0.709057 20.7562 0.732484 20.593 0.789925C20.4297 0.847367 20.28 0.937607 20.1529 1.05509C15.5409 4.80237 13.4885 9.9909 13.4885 13.2078C13.494 14.3323 13.8231 15.4315 14.4364 16.3741C15.0498 17.3167 15.9216 18.0627 16.9475 18.5232C17.6407 18.8603 18.402 19.0338 19.1729 19.0305C19.8341 19.0626 20.4949 18.9601 21.1153 18.7292C21.7357 18.4984 22.3028 18.1439 22.7821 17.6873C23.2614 17.2307 23.643 16.6815 23.9038 16.073C24.1645 15.4646 24.299 14.8095 24.299 14.1475C24.299 13.4855 24.1645 12.8304 23.9038 12.2219C23.643 11.6135 23.2614 11.0643 22.7821 10.6077C22.3028 10.1511 21.7357 9.79663 21.1153 9.56574C20.4949 9.33485 19.8341 9.23237 19.1729 9.26451V9.28756Z" fill="url(#paint1_linear_2_1058)"/>
<defs>
<linearGradient id="paint0_linear_2_1058" x1="6.06054" y1="0.765381" x2="6.06054" y2="19.0592" gradientUnits="userSpaceOnUse">
<stop stop-color="#FFC603"/>
<stop offset="1" stop-color="#FF7C00"/>
</linearGradient>
<linearGradient id="paint1_linear_2_1058" x1="18.8937" y1="0.718018" x2="18.8937" y2="19.0362" gradientUnits="userSpaceOnUse">
<stop stop-color="#FFC603"/>
<stop offset="1" stop-color="#FF7C00"/>
</linearGradient>
</defs>
</svg>
