<svg width="45" height="45" viewBox="0 0 45 45" fill="none" xmlns="http://www.w3.org/2000/svg">
<path d="M6.7249 1.2749H38.3097C41.3043 1.2749 43.7319 3.70249 43.7319 6.69706V38.2819C43.7319 41.2765 41.3043 43.7041 38.3097 43.7041H6.7249C3.73032 43.7041 1.30273 41.2765 1.30273 38.2819V6.69706C1.30273 3.70249 3.73032 1.2749 6.7249 1.2749Z" fill="#0B0217" stroke="url(#paint0_linear_2_1068)"/>
<path d="M34.3467 12.0021L33.8976 12.1649L9.52298 20.947C9.35025 21.0004 9.20012 21.1096 9.09613 21.2575C8.99214 21.4054 8.94016 21.5837 8.94835 21.7643C8.95653 21.9449 9.02441 22.1177 9.14136 22.2556C9.2583 22.3935 9.41769 22.4887 9.59454 22.5262L15.9041 24.2535L17.0811 27.7081L18.2582 31.1627C18.3258 31.3321 18.4337 31.4824 18.5726 31.6005C18.7115 31.7187 18.8771 31.8012 19.0551 31.8408C19.2331 31.8804 19.418 31.876 19.5939 31.828C19.7698 31.7799 19.9313 31.6896 20.0644 31.5649L23.3241 28.4854L29.725 32.8259C30.5072 33.3589 31.6225 32.964 31.8224 32.0856L36.0617 13.3543C36.2689 12.4265 35.2918 11.664 34.3467 12.0021ZM31.2351 16.1599L20.2224 25.1616L19.7042 25.586C19.5903 25.6763 19.516 25.8072 19.4969 25.9512L19.3809 26.9086L19.0626 29.5983C19.0652 29.631 19.0547 29.6634 19.0334 29.6884C19.0122 29.7134 18.9818 29.7289 18.9491 29.7315C18.9164 29.7341 18.8839 29.7237 18.859 29.7024C18.834 29.6811 18.8185 29.6507 18.8158 29.618L17.9201 26.9308L16.9948 24.1795C16.9556 24.0558 16.9608 23.9224 17.0095 23.8021C17.0581 23.6819 17.1472 23.5823 17.2613 23.5207L28.7207 16.952L30.8773 15.7182C31.1907 15.5356 31.5115 15.9329 31.2351 16.1599Z" fill="white"/>
<defs>
<linearGradient id="paint0_linear_2_1068" x1="22.5173" y1="0.774902" x2="22.5173" y2="44.2041" gradientUnits="userSpaceOnUse">
<stop stop-color="#FFC603"/>
<stop offset="1" stop-color="#FF7C00"/>
</linearGradient>
</defs>
</svg>
