<svg width="44" height="45" viewBox="0 0 44 45" fill="none" xmlns="http://www.w3.org/2000/svg">
<path d="M6.04863 1.2749H37.6335C40.6281 1.2749 43.0556 3.70249 43.0556 6.69706V38.2819C43.0556 41.2765 40.6281 43.7041 37.6335 43.7041H6.04863C3.05405 43.7041 0.626465 41.2765 0.626465 38.2819V6.69706C0.626465 3.70249 3.05405 1.2749 6.04863 1.2749Z" fill="#0B0217" stroke="url(#paint0_linear_2_1072)"/>
<path d="M35.3608 14.2748C34.7166 15.2372 33.9323 16.098 33.0339 16.8287C32.9174 16.9214 32.8233 17.0393 32.7588 17.1735C32.6943 17.3076 32.6609 17.4547 32.6613 17.6036V17.6949C32.651 19.6341 32.2951 21.556 31.6101 23.3703C30.9045 25.2719 29.8566 27.0281 28.5182 28.5522C26.7278 30.5932 24.4216 32.1153 21.841 32.9592C20.1406 33.5111 18.3629 33.7876 16.5752 33.7785C13.7441 33.7755 10.9639 33.0247 8.51615 31.6021C8.4285 31.5523 8.35958 31.4751 8.31992 31.3824C8.28026 31.2897 8.27205 31.1866 8.29653 31.0888C8.32135 30.9921 8.37786 30.9065 8.45702 30.8457C8.53619 30.7848 8.63346 30.7523 8.73329 30.7532H9.40941C11.5614 30.7529 13.6641 30.1093 15.4475 28.905C14.3844 28.7312 13.3896 28.2682 12.5722 27.5665C11.7548 26.8649 11.1463 25.9518 10.8135 24.9273C10.7971 24.8768 10.7942 24.8229 10.805 24.7709C10.8158 24.719 10.8399 24.6707 10.875 24.6309C10.9101 24.591 10.955 24.561 11.0052 24.5438C11.0554 24.5265 11.1092 24.5226 11.1614 24.5325C11.4868 24.5944 11.8172 24.6258 12.1484 24.6263H12.2718C11.2413 24.1528 10.3702 23.3909 9.76365 22.4327C9.15713 21.4745 8.84124 20.3612 8.8542 19.2272C8.85491 19.174 8.86936 19.1219 8.89615 19.076C8.92295 19.03 8.96117 18.9917 9.00712 18.9649C9.05306 18.9381 9.10516 18.9236 9.15836 18.9229C9.21155 18.9221 9.26404 18.9352 9.31071 18.9607C9.72879 19.1942 10.1772 19.3686 10.6432 19.4789C9.72045 18.5667 9.12655 17.374 8.95462 16.0878C8.7827 14.8017 9.04246 13.4949 9.69318 12.3723C9.71814 12.3309 9.75255 12.2961 9.79358 12.2706C9.83461 12.2451 9.8811 12.2296 9.92924 12.2255C9.97738 12.2214 10.0258 12.2288 10.0706 12.247C10.1153 12.2652 10.1551 12.2938 10.1867 12.3304C11.479 13.9279 13.0792 15.2496 14.8921 16.2169C16.7051 17.1842 18.6939 17.7774 20.7405 17.9614H20.7627C20.793 17.9604 20.8228 17.9533 20.8504 17.9406C20.8779 17.9279 20.9026 17.9098 20.9231 17.8873C20.9427 17.8649 20.9575 17.8386 20.9664 17.8101C20.9753 17.7817 20.9782 17.7516 20.9749 17.722C20.8985 17.0054 20.9452 16.281 21.1131 15.5802C21.2602 14.9666 21.5105 14.3825 21.8533 13.8529C22.5729 12.7228 23.669 11.8837 24.9477 11.484C25.5475 11.2959 26.1722 11.1994 26.8008 11.1978C28.2263 11.1964 29.6032 11.7159 30.6724 12.6586C30.8086 12.7796 30.9837 12.8479 31.1659 12.851C31.2259 12.85 31.2856 12.8417 31.3436 12.8264C32.3488 12.572 33.3121 12.1739 34.2035 11.6444C34.2572 11.6134 34.3189 11.5993 34.3807 11.6039C34.4426 11.6085 34.5015 11.6316 34.55 11.6702C34.5985 11.7088 34.6342 11.7612 34.6525 11.8204C34.6708 11.8796 34.6708 11.9429 34.6526 12.0022C34.3535 12.9361 33.824 13.7797 33.1129 14.4549C33.7543 14.3017 34.3803 14.0903 34.9833 13.8232C35.0441 13.7962 35.112 13.7896 35.1769 13.8047C35.2417 13.8197 35.2999 13.8554 35.3425 13.9065C35.3852 13.9575 35.4101 14.0211 35.4134 14.0876C35.4167 14.1541 35.3982 14.2198 35.3608 14.2748Z" fill="white"/>
<defs>
<linearGradient id="paint0_linear_2_1072" x1="21.8411" y1="0.774902" x2="21.8411" y2="44.2041" gradientUnits="userSpaceOnUse">
<stop stop-color="#FFC603"/>
<stop offset="1" stop-color="#FF7C00"/>
</linearGradient>
</defs>
</svg>
